<?xml version="1.0" encoding="UTF-8"?>
<!DOCTYPE svg PUBLIC "-//W3C//DTD SVG 1.1//EN" "http://www.w3.org/Graphics/SVG/1.1/DTD/svg11.dtd">
<!-- Creator: CorelDRAW -->
<svg xmlns="http://www.w3.org/2000/svg" xml:space="preserve" width="3.3777in" height="2.53784in" version="1.1" style="shape-rendering:geometricPrecision; text-rendering:geometricPrecision; image-rendering:optimizeQuality; fill-rule:evenodd; clip-rule:evenodd"
viewBox="0 0 2360.71 1773.72"
 xmlns:xlink="http://www.w3.org/1999/xlink"
 xmlns:xodm="http://www.corel.com/coreldraw/odm/2003">
 <defs>
  <style type="text/css">
   <![CDATA[
    .str0 {stroke:white;stroke-width:38.83;stroke-miterlimit:2.61313}
    .fil0 {fill:none}
   ]]>
  </style>
 </defs>
 <g id="Layer_x0020_1">
  <metadata id="CorelCorpID_0Corel-Layer"/>
  <path class="fil0 str0" d="M944.07 461.86c-41.37,0.8 -117.1,-85.21 -292.33,-118.6 -68.58,-13.07 -74.63,-35.85 -160.34,-49.06 -53.48,-8.25 -126.07,-25.44 -182.89,-37.48 -21.06,196.68 71.02,154.19 76.55,257.29 14.86,277.48 -6.61,221.43 98.84,246.46 -13.27,51.69 -42.02,173.39 -72.71,207.4 -24.18,26.79 -59.46,33.64 -90.18,52.82 -54.86,34.26 -21.84,51.43 -49.64,90.56 -42.02,-3.9 -63.96,-33.55 -103.74,-51.17 7.8,67.43 46.23,111.94 81.09,144.64 98.29,92.18 100.38,8.78 163.9,18.24 61.15,9.11 69.2,104.66 46.15,165.12 -28.84,75.67 9.52,105.79 69.01,132.48 21.9,-26.05 30.4,-24.08 39.38,-64.1 8.16,-36.34 8.76,-53.37 20.22,-81.84 165.71,-16.75 72.15,-18.56 146.03,-54.75 24.44,-11.97 -17.07,7.7 13.66,-5.41l42.9 -19.97c18.8,46.19 20.13,149.55 115.86,63.05 37.01,-33.45 42.41,-22.08 100.33,-20.55 153.62,4.05 71.99,-81.86 127.39,-113.64 53.12,-30.47 139.01,1.68 183.82,27.98 158.04,92.76 65.19,102.36 94.71,142.65 9.54,6.13 4.93,6.88 26.07,11.2 32.27,6.6 84.29,-3.14 114.9,-9.41 62.69,-12.83 77.55,-15.48 127.46,16.08 42.42,26.82 133.11,133.34 150.88,194.21 68.01,-12.34 54.34,-18.67 85.29,-57.17 41.78,-51.98 46.05,6.7 65.73,-76.51 27.23,-115.13 -12.96,-362.05 106.01,-466.48 133.98,-117.6 45.3,-56.68 91.37,-195.13 28.68,-86.19 10.09,-147.92 -47.13,-194.02 -142.92,-115.14 -116.42,-211.84 -354.69,-220.72 -197.51,-7.37 -175.51,32.97 -244.59,38.04 -7.87,-39.27 14.84,-50.17 32.78,-81.85 -29.82,-37 -129.12,-114.4 -178.27,-116.65 -128.13,-5.87 -144.08,-6.42 -257.26,-46.35 -79.88,-28.18 -195.78,-40.28 -231.98,38.12 -40.62,87.98 58.36,154.04 45.41,234.54z"/>
  <rect class="fil0" y="-0" width="2360.71" height="1773.72"/>
 </g>
</svg>
