<?xml version="1.0" encoding="UTF-8"?>
<!DOCTYPE svg PUBLIC "-//W3C//DTD SVG 1.1//EN" "http://www.w3.org/Graphics/SVG/1.1/DTD/svg11.dtd">
<!-- Creator: CorelDRAW 2021 (64-Bit) -->
<svg xmlns="http://www.w3.org/2000/svg" xml:space="preserve" width="55.0368mm" height="70.4938mm" version="1.1" style="shape-rendering:geometricPrecision; text-rendering:geometricPrecision; image-rendering:optimizeQuality; fill-rule:evenodd; clip-rule:evenodd"
viewBox="0 0 5489.46 7031.16"
 xmlns:xlink="http://www.w3.org/1999/xlink"
 xmlns:xodm="http://www.corel.com/coreldraw/odm/2003">
 <defs>
  <style type="text/css">
   <![CDATA[
    .fil0 {fill:#FFFFFF}
   ]]>
  </style>
 </defs>
 <g id="Layer_x0020_1">
  <metadata id="CorelCorpID_0Corel-Layer"/>
  <g id="_2293013477984">
   <path class="fil0" d="M2997.37 3936.54c61.47,87.99 145.36,15.02 245.98,24.07 267.2,24.03 127.65,315.16 370.67,235.72 97.4,-31.85 199.11,5.26 248.54,57.35 49.58,52.26 61.77,164.76 172.89,145.22 46.62,-8.2 64.56,-31.38 128.74,-31.59 138.96,-0.45 229.55,85.06 229.11,251.97 -0.63,243.98 14.36,1087.2 -20.81,1264.43 -33.41,168.33 -108.89,325.47 -179.21,462.3 -34.29,66.72 -76.52,144.88 -107.01,213.84 -61.26,138.53 -37.96,100.62 -66.61,209.24l-11.88 33.29c-54.17,16.7 -1138.02,5.54 -1286.1,2.1 -42.14,-447.77 -125.17,-482.88 -338.67,-834.62 -248.41,-409.24 -315.85,-770.54 -553.74,-1203.26 -65.86,-119.8 -147.48,-270.89 -172.92,-417.23 -41.74,-240.02 175.8,-291.01 291.22,-241.33 127.91,55.07 308.55,366.88 386.63,491.63 40.58,64.82 135.7,87.27 186.86,14.77 44.56,-63.16 21.29,-458.5 21.29,-569.37l-0.04 -1460.95c-0.26,-111.72 4.86,-162.89 72.42,-223.44 131.92,-118.25 330.87,-34.87 359.14,120.29 4.04,22.15 22.26,1453.81 23.5,1455.58zm-675.96 234.05c-56.21,-52.04 -100.88,-138.39 -157.9,-185.38 -314.2,-258.89 -804.23,-60.46 -726.55,396.67 8.63,50.74 169.76,438.35 196.97,487.34 125.26,225.47 122.86,231.51 214.79,469.21 86.94,224.8 203.6,514.15 322.89,707.31 68.89,111.53 209.21,319.98 256.83,427.41 128.11,288.99 9.29,432.39 157.88,526.22 79.1,49.93 536.05,26.1 665.65,26.1 228.01,0 456.02,-0.02 684.03,-0.01 127.15,0.01 212.63,5.47 263.35,-82.18 29.72,-51.36 22.34,-76.89 32.76,-135.96 22.85,-129.64 198.02,-422.29 265.26,-588.06 78.57,-193.64 115.27,-341.81 115.06,-578.14 -0.19,-228.06 1.11,-456.01 1.11,-684.03 0,-285.1 63.3,-634.57 -260.47,-771.68 -116.28,-49.24 -163.55,-36.61 -290.84,-30.44 -21.62,-50.52 -113.7,-121.32 -178.43,-150.75 -96.76,-43.98 -158.72,-41.35 -268.94,-36.52 -67.96,-130.73 -211.94,-229.14 -414.44,-228.68 -11.52,-122.03 -2.18,-765.29 -2.18,-943.8 0,-141.19 16.8,-314.99 -31.69,-437.93 -149.51,-379.1 -718.11,-362.32 -829.16,47.31 -38.23,140.98 -15.26,1452.03 -15.99,1765.97z"/>
   <path class="fil0" d="M5323.46 3582.07c83.73,-23.79 86,-96.17 102.96,-182.17 115.78,-586.63 78.11,-1189.07 -163.47,-1728.92 -124.15,-277.44 -273.72,-518.43 -441.14,-715.83 -28.99,-34.18 -35.68,-45.04 -67.1,-76.28 -26.76,-26.61 -39.49,-51.3 -67.02,-76.89 -58.54,-54.44 -87.2,-88.81 -142.82,-143.76l-154.24 -133.14c-33.89,-27.6 -131.62,-107.66 -170.91,-124.93 -81.44,-35.78 -162.17,25.02 -157.3,106.24 4.53,75.44 86.84,108.77 138.11,149.67 156.75,125.06 316.71,270.17 439.3,422.04 522.98,647.82 734.95,1366.28 583.19,2211.08 -13.54,75.41 -49.83,178.37 -23.03,240.6 10.5,21.79 21.48,32.12 49.6,46.62 32.68,16.86 41.59,13.56 73.85,5.66z"/>
   <path class="fil0" d="M2634.15 1042.76c-444.41,42.35 -905.79,310.08 -1177.43,641.4 -35.37,43.14 -90.25,91.86 -117.58,144.61 -35.06,67.68 6.45,143.16 69.63,158.02 108.94,25.63 147.24,-100.18 279.87,-231.26 633.9,-626.44 1388.89,-665.81 2061.29,-75.01 15.73,13.82 23.37,17.03 38.59,29.56 15.7,12.93 18.73,20.36 33.33,33.56 59.11,53.43 143.63,36.2 176.49,-26.27 56.39,-107.19 -101.11,-205.52 -202.75,-284.86 -312.01,-243.58 -729.52,-430.92 -1161.45,-389.75z"/>
   <path class="fil0" d="M2640.54 2.85c-586.13,28.44 -1093.36,233.16 -1478.59,499.52 -49.33,34.1 -97.56,67.63 -141.77,103.22 -27.63,22.23 -36.62,28.14 -65.72,52.25 -67.99,56.34 -171.2,128.22 -171.22,203.53 -0.02,80.61 101.59,172.11 210.07,55.23 27.5,-29.63 36.61,-37.8 65.92,-60.82 24.72,-19.42 43.42,-38.84 68.16,-58.51 598.61,-475.88 1381.62,-703.65 2202.52,-512.58 60.77,14.14 141.5,41.31 195.38,49.95 75.41,12.08 132.55,-38.18 132.78,-106.6 0.28,-83.62 -59.68,-102.27 -132.66,-121.74 -276.51,-73.84 -578.96,-118.28 -884.88,-103.44z"/>
   <path class="fil0" d="M2325.84 589.29c-1014.82,186.05 -1613.33,906.55 -1771.85,1829.89 -9.54,55.5 -31.49,180.55 -24.81,232.95 8.81,69.1 86.12,126.4 162.17,81.88 65.5,-38.34 54.22,-98.7 65.34,-187.58 92.53,-739.52 518.75,-1360.66 1200.44,-1629.18 123.61,-48.69 260.98,-84.96 403.24,-111.59 169.46,-31.72 130.22,-165.23 71.99,-205.64 -29.97,-20.81 -68.84,-17.62 -106.52,-10.72z"/>
   <path class="fil0" d="M3891.2 3772.55c36.02,-241.13 40.36,-559.16 37.09,-808.41 -3.74,-286.21 -12.29,-487.21 -123.31,-721.74 -94.11,-198.8 -230.56,-352.51 -388.25,-456.46 -103.4,-68.17 -498.15,-278.12 -612.73,-181.82 -37.23,31.3 -49.91,109.81 -11.45,155.5 35.62,42.33 91.66,38.11 157.82,54.3 305.93,74.81 560.11,274.76 681.3,584.7 109.18,279.22 82.07,844.3 57.19,1173.39 -14.56,192.63 -25.63,152.37 202.34,200.54z"/>
   <path class="fil0" d="M1389.71 2305.45c28.34,-113.79 -121.78,-186.63 -195.34,-90.17 -35.26,46.23 -74.38,232.45 -85.07,303.11 -37.14,245.25 -21.83,499.58 -23.8,749.76 -7.88,1001.87 -373.09,1024.21 -408.48,1142.26 -34.11,113.82 116.08,296.49 387.55,-103.73 348.68,-514.05 195.44,-1161.88 253.7,-1688.58 14.51,-131.19 42.97,-198.35 71.44,-312.65z"/>
   <path class="fil0" d="M567.61 1138.33c-39.34,16.63 -33.14,10.1 -54.11,41.79l-117.76 177.38c-154.18,251.51 -269.46,542.91 -333.29,840.98 -72.24,337.4 -83.72,719.46 -24.35,1065.51 17.52,102.15 38.95,258.17 170.37,202.33 119.62,-50.84 58.38,-163.09 40.74,-286.73 -75.59,-529.98 18.05,-1156.87 280.25,-1612.16 49.05,-85.19 96.87,-166.79 149.2,-239.46 27.39,-38.03 57.94,-78.91 26.5,-140.2 -20.65,-40.24 -77.26,-74.93 -137.56,-49.44z"/>
   <path class="fil0" d="M3098.48 553.63c-51.3,16.83 -93.31,61.68 -72.8,136.19 17.49,63.59 64.28,71.03 134.35,86.66 348.27,77.73 670.62,256.43 923.36,469.8l165.1 163.89c62.72,76.57 124.92,156.35 181.74,249.07 54.88,89.55 102.35,181.44 143.52,287.23 36.58,94 54.24,268.91 189.6,232.7 133.11,-35.61 58.08,-204.17 21.26,-299.82 -136.47,-354.59 -349.07,-629.87 -638.15,-865.45 -39.03,-31.8 -82.07,-62.95 -125.92,-93.59 -82.65,-57.76 -173.92,-109.72 -270.17,-160.14 -90.05,-47.16 -545.83,-241.33 -651.89,-206.53z"/>
   <path class="fil0" d="M1579.62 3708.54c80.24,-21.65 119.89,-39.92 215.58,-55.82l10.81 -713.92c13.98,-434.28 56.39,-744.16 459.18,-1003.76 35.91,-23.14 71.66,-43.76 113.8,-63.51 36.61,-17.16 106.04,-37.75 130.04,-55.93 80.96,-61.31 31.17,-212.94 -91.46,-193.67 -146.89,23.08 -381.7,202.08 -458.52,269.03 -118.05,102.9 -235.12,284.21 -291.54,442.97 -74.63,209.95 -75.58,403.18 -83.08,640.27 -7.36,232.63 -18.7,504.02 -4.8,734.32z"/>
   <path class="fil0" d="M4802.61 4394.82c93.29,-15.35 93.21,-81.61 107.67,-176.68 74.49,-489.67 71.56,-1122.17 44.03,-1619.13 -5.18,-93.35 -12.32,-175.9 -107.05,-182.27 -103.56,-6.94 -119.87,81.64 -115.1,159.13 16.57,269.23 21.51,567.78 17.34,835.84 -2.81,180.76 -11.06,363.03 -28.57,540.9 -6.21,63.15 -39.2,208.31 -13.39,249.72 33.95,54.44 82.74,115.06 95.07,192.49z"/>
   <path class="fil0" d="M4185.8 3929.87c89.08,1.05 140.16,19.55 216.43,38.23 36.17,-304.16 53.9,-632.89 48.55,-944.85 -2.7,-157.75 -10.54,-315.9 -26.67,-470.33 -12.36,-118.45 -17.61,-351.18 -127.23,-372.2 -73.92,-14.16 -133.71,39.13 -133.43,107.52 0.21,50.34 25.96,160.6 33.29,220.67 61.94,507.29 24.54,920.15 -10.94,1420.96z"/>
   <path class="fil0" d="M529.85 3200.59c73.55,661.89 -252.85,813.08 -73.52,904.27 115.43,58.7 164.24,-64.06 198.11,-140.76 81.4,-184.35 110.5,-423.07 104.14,-645.15 -2.85,-99.72 -0.32,-259.3 -68.54,-300.88 -51.07,-31.13 -114.64,-11.66 -142.59,20 -40.73,46.14 -24.77,97.93 -17.59,162.52z"/>
  </g>
 </g>
</svg>
